<svg width="40" height="40" viewBox="0 0 40 40" fill="none" xmlns="http://www.w3.org/2000/svg">
<rect width="40" height="40" rx="6" fill="#AFCEDD"/>
<path d="M18.1271 24C18.1511 23.208 18.1631 22.632 18.1631 22.272C18.1631 20.4 18.0551 18.726 17.8391 17.25C17.5631 15.198 17.1191 13.476 16.5071 12.084L18.8111 10.644C19.0751 11.16 19.2851 11.652 19.4411 12.12C19.6211 12.588 19.7771 12.942 19.9091 13.182C20.0531 13.422 20.2451 13.614 20.4851 13.758C20.7371 13.89 21.0731 13.956 21.4931 13.956C22.5491 13.956 23.0771 13.284 23.0771 11.94C23.0771 11.712 23.0591 11.454 23.0231 11.166L25.2911 10.68C25.3991 11.196 25.4531 11.724 25.4531 12.264C25.4531 13.152 25.3031 13.98 25.0031 14.748C24.7151 15.516 24.2711 16.134 23.6711 16.602C23.0831 17.058 22.3571 17.286 21.4931 17.286C21.1331 17.286 20.7851 17.22 20.4491 17.088C20.5691 18.324 20.6291 19.722 20.6291 21.282C20.6291 22.158 20.6111 23.064 20.5751 24H18.1271Z" fill="#234894"/>
</svg>
